<?xml version="1.0" encoding="utf-8"?><!-- Generator: Adobe Illustrator 24.1.1, SVG Export Plug-In . SVG Version: 6.00 Build 0)  -->
<svg version="1.1" id="vector" xmlns="http://www.w3.org/2000/svg"
    xmlns:xlink="http://www.w3.org/1999/xlink" x="0px" y="0px" viewBox="0 0 263 263"
    style="enable-background:new 0 0 263 263;" xml:space="preserve">
<style type="text/css">
	.st0{fill:#DB4437;}
	.st1{fill:#4285F4;}
	.st2{fill:#0F9D58;}
	.st3{fill:#F4B400;}
	.st4{fill:#B125EA;}
	.st5{fill:#FFFFFF;}
</style>
    <path id="path" class="st0"
        d="M162.1,178.6l41.2-41.2l-41.2-41.2L149.4,109l28.5,28.5L149.4,166L162.1,178.6z" />
    <path id="path_1" class="st1" d="M86.5,74.5h90v17.9h17.9V56.5c0-9.9-8-17.9-17.9-17.9l-89.9-0.1c-9.9,0-17.9,8-17.9,17.9v35.9h17.9
	L86.5,74.5L86.5,74.5z" />
    <path id="path_2" class="st2" d="M176.4,200.2h-90v-17.9H68.6v35.9c0,9.9,8,17.9,17.9,17.9h89.8c9.9,0,17.9-8,17.9-17.9v-35.9h-17.9
	L176.4,200.2L176.4,200.2z" />
    <path id="path_3" class="st3"
        d="M113.5,165.8L85,137.3l28.5-28.5L100.8,96l-41.2,41.2l41.2,41.2L113.5,165.8z" />
</svg>