<?xml version="1.0" encoding="utf-8"?>
<!-- Generator: Adobe Illustrator 24.1.1, SVG Export Plug-In . SVG Version: 6.00 Build 0)  -->
<svg version="1.1" id="vector" xmlns="http://www.w3.org/2000/svg" xmlns:xlink="http://www.w3.org/1999/xlink" x="0px" y="0px"
	 viewBox="0 0 263 263" style="enable-background:new 0 0 263 263;" xml:space="preserve">
<style type="text/css">
	.st0{fill:#DB4437;}
	.st1{fill:#4285F4;}
	.st2{fill:#0F9D58;}
	.st3{fill:#F4B400;}
</style>
<path id="path" class="st0" d="M172.3,186.4l54.9-54.9l-54.9-54.9l-16.9,17l37.9,37.9l-37.9,37.9L172.3,186.4z"/>
<path id="path_1" class="st1" d="M71.6,47.8h119.8v23.9h23.8V23.9c0-13.2-10.7-23.8-23.9-23.8L71.6,0C58.4,0,47.7,10.7,47.7,23.9
	v47.8h23.9V47.8z"/>
<path id="path_2" class="st2" d="M191.4,215.2H71.6v-23.9H47.8v47.8c0,13.2,10.7,23.9,23.9,23.9h119.6c13.2,0,23.9-10.7,23.9-23.9
	v-47.8h-23.9V215.2z"/>
<path id="path_3" class="st3" d="M107.6,169.4l-37.9-37.9l37.9-37.9l-16.9-17l-54.9,54.9l54.9,54.9L107.6,169.4z"/>
</svg>
